<?xml version="1.0" standalone="no"?><svg xmlns="http://www.w3.org/2000/svg" viewBox="0 0 1440 320"><path fill="#0099ff" fill-opacity="1" d="M0,224L26.7,192C53.3,160,107,96,160,74.7C213.3,53,267,75,320,112C373.3,149,427,203,480,234.7C533.3,267,587,277,640,261.3C693.3,245,747,203,800,192C853.3,181,907,203,960,192C1013.3,181,1067,139,1120,117.3C1173.3,96,1227,96,1280,112C1333.3,128,1387,160,1413,176L1440,192L1440,320L1413.3,320C1386.7,320,1333,320,1280,320C1226.7,320,1173,320,1120,320C1066.7,320,1013,320,960,320C906.7,320,853,320,800,320C746.7,320,693,320,640,320C586.7,320,533,320,480,320C426.7,320,373,320,320,320C266.7,320,213,320,160,320C106.7,320,53,320,27,320L0,320Z"></path></svg>